<?xml version="1.0" encoding="UTF-8" standalone="no"?>
<!DOCTYPE svg PUBLIC "-//W3C//DTD SVG 1.1//EN" "http://www.w3.org/Graphics/SVG/1.1/DTD/svg11.dtd">
<svg width="100%" height="100%" viewBox="0 0 512 512" version="1.1" xmlns="http://www.w3.org/2000/svg" xmlns:xlink="http://www.w3.org/1999/xlink" xml:space="preserve" xmlns:serif="http://www.serif.com/" style="fill-rule:evenodd;clip-rule:evenodd;stroke-linejoin:round;stroke-miterlimit:2;">
    <g>
        <clipPath id="_clip1">
            <path d="M256,512C397.384,512 512,397.385 512,256C512,114.616 397.384,0 256,0C114.615,0 0,114.616 0,256C0,397.385 114.615,512 256,512Z"/>
        </clipPath>
        <g clip-path="url(#_clip1)">
            <rect x="-5" y="-5" width="522" height="522" style="fill:rgb(209,167,92);fill-rule:nonzero;"/>
        </g>
        <clipPath id="_clip2">
            <path d="M324.857,238.405C306.507,238.405 297.131,252.847 297.131,274.605C297.131,295.171 307.269,310.609 324.857,310.609C344.746,310.609 352.202,292.407 352.202,274.605C352.188,256.015 342.817,238.405 324.851,238.405L324.857,238.405ZM276.1,184.409L297.896,184.409L297.896,236.624L298.282,236.624C304.209,226.737 316.637,220.603 327.728,220.603C358.89,220.603 374.001,245.137 374.001,275.007C374.001,302.492 360.618,328.405 331.358,328.405C317.974,328.405 303.633,325.051 297.13,311.596L296.752,311.596L296.752,325.647L276.098,325.647L276.098,184.412L276.1,184.409Z"/>
        </clipPath>
        <g clip-path="url(#_clip2)">
            <rect x="271.098" y="179.409" width="107.903" height="153.996" style="fill:white;fill-rule:nonzero;"/>
        </g>
        <clipPath id="_clip3">
            <path d="M454.389,257.598C452.667,245.136 443.874,238.406 431.827,238.406C420.54,238.406 404.674,244.541 404.674,275.598C404.674,292.61 411.938,310.613 430.87,310.613C443.488,310.613 452.281,301.899 454.389,287.262L476.185,287.262C472.169,313.768 456.302,328.405 430.87,328.405C399.893,328.405 382.876,305.663 382.876,275.598C382.876,244.742 399.129,220.609 431.635,220.609C454.579,220.609 474.089,232.476 476.185,257.6L454.425,257.6L454.389,257.598Z"/>
        </clipPath>
        <g clip-path="url(#_clip3)">
            <rect x="377.876" y="215.609" width="103.309" height="117.796" style="fill:white;fill-rule:nonzero;"/>
        </g>
        <clipPath id="_clip4">
            <path d="M199.895,325.339L36.407,325.339L112.753,184.409L276.242,184.409L199.895,325.339Z"/>
        </clipPath>
        <g clip-path="url(#_clip4)">
            <rect x="31.407" y="179.409" width="249.835" height="150.93" style="fill:white;fill-rule:nonzero;"/>
        </g>
    </g>
</svg>
